<?xml version="1.0" standalone="no"?>
<!DOCTYPE svg PUBLIC "-//W3C//DTD SVG 20010904//EN"
 "http://www.w3.org/TR/2001/REC-SVG-20010904/DTD/svg10.dtd">
<svg version="1.0" xmlns="http://www.w3.org/2000/svg"
 width="1198.000000pt" height="510.000000pt" viewBox="0 0 1198.000000 510.000000"
 preserveAspectRatio="xMidYMid meet">

<g transform="translate(0.000000,510.000000) scale(0.100000,-0.100000)"
fill="#000000" stroke="none">
<path d="M0 2550 l0 -2550 5990 0 5990 0 0 2550 0 2550 -5990 0 -5990 0 0
-2550z m3103 137 c48 -83 120 -209 161 -278 l74 -126 -162 -279 -161 -279
-329 0 -329 0 -158 275 c-88 151 -159 278 -159 283 0 7 263 467 306 535 l14
22 328 0 327 0 88 -153z m1692 118 c32 -9 81 -28 109 -43 49 -26 186 -150 186
-169 0 -5 -32 -32 -71 -61 l-70 -53 -47 50 c-85 90 -214 126 -338 92 -129 -35
-225 -162 -226 -300 -1 -84 14 -137 55 -197 117 -169 366 -186 508 -34 l46 49
69 -50 c38 -27 70 -54 72 -59 6 -18 -133 -146 -190 -174 -198 -97 -420 -69
-579 73 -297 264 -191 750 189 872 72 23 207 24 287 4z m-2781 -125 c39 -65
43 -78 32 -95 -7 -11 -50 -84 -95 -161 l-82 -142 94 -162 94 -162 -51 -89
c-28 -48 -54 -85 -58 -81 -3 4 -70 117 -148 251 l-141 244 137 236 c159 274
155 267 165 249 4 -7 28 -47 53 -88z m1551 -143 c77 -133 140 -248 139 -257 0
-8 -64 -125 -141 -258 l-142 -244 -24 39 c-13 21 -36 61 -52 90 l-29 51 92
160 c51 87 92 162 92 164 0 3 -39 72 -86 153 -47 80 -88 153 -90 160 -5 13 85
185 96 185 3 0 68 -109 145 -243z m4048 172 c15 -11 32 -37 38 -58 31 -104
-107 -180 -182 -100 -46 50 -35 133 22 165 36 20 92 17 122 -7z m-1949 -283
c70 -34 139 -110 166 -184 30 -78 24 -185 -13 -257 -30 -60 -95 -124 -157
-156 -38 -20 -60 -24 -140 -24 -85 0 -101 3 -148 28 -65 34 -122 92 -153 155
-20 39 -24 63 -24 142 0 84 3 101 27 145 26 51 94 121 139 146 88 47 212 49
303 5z m696 18 c73 -21 131 -63 169 -121 48 -73 55 -110 55 -318 l1 -190 -90
0 -90 0 -5 195 c-5 214 -9 226 -67 254 -58 28 -113 16 -158 -34 -18 -20 -20
-40 -25 -219 l-5 -196 -87 -3 -88 -3 0 321 0 320 86 0 c75 0 86 -2 91 -18 4
-18 7 -17 50 5 55 27 90 29 163 7z m795 -13 c50 -22 145 -105 145 -127 0 -11
-97 -90 -124 -100 -8 -3 -23 7 -35 24 -61 86 -196 80 -251 -10 -46 -76 -35
-153 30 -212 35 -31 47 -36 91 -36 61 0 84 11 125 57 l31 36 71 -49 c39 -27
72 -52 72 -55 1 -18 -100 -105 -148 -127 -48 -23 -71 -27 -142 -27 -71 0 -94
4 -140 26 -187 89 -247 315 -129 492 80 121 263 170 404 108z m1109 -5 c31
-15 74 -49 100 -77 147 -163 98 -415 -99 -517 -68 -34 -185 -42 -253 -17 -215
82 -291 319 -161 511 83 122 273 169 413 100z m-624 -296 l0 -321 -92 3 -93 3
-3 305 c-1 168 0 310 3 317 3 9 31 13 95 13 l90 0 0 -320z m1110 133 c0 -217
7 -245 73 -277 33 -16 45 -17 77 -7 21 6 50 25 64 42 l26 31 0 199 0 199 90 0
90 0 0 -205 c0 -235 -11 -282 -80 -354 -67 -69 -110 -86 -220 -86 -109 0 -149
15 -211 82 -77 80 -83 104 -87 331 -2 112 -1 209 2 217 4 12 25 15 91 15 l85
0 0 -187z m885 176 c48 -13 145 -69 145 -84 -1 -5 -22 -33 -48 -62 l-48 -52
-36 25 c-67 48 -173 41 -166 -9 3 -18 19 -26 108 -50 156 -42 210 -92 210
-198 0 -192 -242 -264 -447 -133 -29 19 -53 39 -53 46 0 7 23 37 51 66 l51 52
31 -26 c61 -51 128 -67 182 -42 20 9 25 18 23 37 -3 28 -3 28 -137 62 -134 35
-188 96 -179 204 11 131 155 207 313 164z"/>
<path d="M2390 2805 c0 -4 7 -19 15 -36 l16 -29 266 2 267 3 19 33 19 32 -301
0 c-166 0 -301 -2 -301 -5z"/>
<path d="M2356 2474 c-59 -102 -106 -191 -104 -197 2 -7 50 -95 108 -195 l105
-182 221 0 221 0 106 185 c59 101 108 188 109 193 2 4 -46 92 -105 195 l-109
187 -222 0 -222 0 -108 -186z"/>
<path d="M2409 1803 c-7 -16 -15 -31 -17 -35 -2 -5 129 -8 292 -8 163 0 296 2
296 5 0 4 -7 19 -15 35 l-16 30 -263 0 -263 0 -14 -27z"/>
<path d="M5467 2286 c-74 -27 -107 -76 -107 -159 0 -40 6 -63 23 -87 38 -57
71 -75 137 -75 66 0 99 18 138 75 31 46 31 134 -1 180 -42 63 -122 91 -190 66z"/>
<path d="M8067 2285 c-72 -25 -109 -78 -109 -155 0 -140 149 -218 259 -134 49
37 66 77 61 144 -8 114 -107 183 -211 145z"/>
</g>
</svg>
